<svg xmlns="http://www.w3.org/2000/svg" viewBox="0 0 837.66 269.16"><defs><style>.cls-1{fill:#2ba1dc;}.cls-2{fill:#252320;}</style></defs><g id="full_color" data-name="full color"><path class="cls-1" d="M191.52,71.29c-3.86-13.77-9.11-26.35-15.39-25.83-10,.83-19.68,27.85-25.63,48.21a46.57,46.57,0,0,0-.83,22.24c.3,1.58.66,3.14,1.09,4.67A43.2,43.2,0,0,0,158.52,136c12.88,16.18,31.65,36.89,41.11,33.41,12.37-4.55.12-59.21-.87-64.39-.51-2.69-3.07-18.91-7.24-33.74"/><path class="cls-1" d="M153.27,42.44a4.22,4.22,0,0,0-1.78-2.53c-9.73-6.22-62.28,35.44-67.34,39.26-4.9,3.71-56.81,41.1-53.95,51.28a2.53,2.53,0,0,0,.39.83c4.85,6.71,37.15-2.48,60.92-10.39a82.1,82.1,0,0,0,23.72-12.75c7.12-5.39,13.15-11.37,17.58-18.47,10.46-16.76,22.78-38.95,20.46-47.23"/><path class="cls-1" d="M179.46,180.66c-2.46-8.76-20.78-23-35.75-33.46-6.65-4.64-14.36-7.57-22.88-9.5a78,78,0,0,0-26.44-1.63c-24.73,2.83-57.77,8.13-59.79,16.36a2.82,2.82,0,0,0,0,1.44c2.94,10.45,62.41,22.38,68.17,23.68,6,1.36,69.51,17.32,76.2,7.46a5,5,0,0,0,.46-4.35"/><path class="cls-2" d="M238.75,142.72q0-21.14,15.57-34.48T294.91,94.9q23.07,0,34.75,10.57V91.84q0-12.5-8.21-19.59T298.8,65.16q-20,0-40.58,11.4L246.54,55.43q25.85-16.68,55.32-16.68,57.81,0,57.82,55v93.68H333.27l-2.5-10.84q-13.06,14.46-37.25,14.45-23.36,0-39.06-13.48T238.75,142.72ZM277.54,124a23.08,23.08,0,0,0,.13,35.86q8.63,7.09,22.24,7.09,13.35,0,22-7a22.15,22.15,0,0,0,8.62-18.07q0-11.4-8.48-18.21t-22.38-6.81Q286,116.86,277.54,124Z"/><path class="cls-2" d="M381.36,162.17l18.9-15q13.07,18.92,34.75,18.91,10,0,16.12-4.73T457.25,148q0-7.5-7.23-12.78a69.91,69.91,0,0,0-17.65-9q-10.42-3.77-20.85-8.49a45.26,45.26,0,0,1-17.66-14.31q-7.22-9.59-7.22-23.49,0-18.9,14-30T436.4,38.75q18.35,0,30.16,8.2t17.09,18.76L462.8,79.61q-10-16.11-28.07-16.12-8.62,0-14,4.31a14,14,0,0,0-5.42,11.53q0,7.52,7.37,12.51a75.17,75.17,0,0,0,17.79,8.62q10.43,3.62,20.71,8.2a45.53,45.53,0,0,1,17.65,14.18q7.36,9.58,7.36,23.77,0,20-14.87,32.24t-37.66,12.23Q397.48,191.08,381.36,162.17Z"/><path class="cls-2" d="M522.29,170q-20.85-21.12-20.85-54.49t20.29-55Q542,38.75,572.05,38.75q32.52,0,51.15,20.71t18.62,55.18c0,3.33-.09,5.84-.27,7.5H532.3q.27,19.19,12.93,30.86t32.1,11.67q26.13,0,40-20.29l20,15q-6.95,12-22.23,21.82t-38.37,9.87Q543.14,191.08,522.29,170Zm11.12-68.67H611q-.84-17.51-11.68-27.38t-27-9.87q-15.86,0-26.69,10.15T533.41,101.29Z"/><path class="cls-2" d="M678.52,170q-20.85-21.12-20.85-54.49t20.29-55q20.28-21.68,50.31-21.68,32.54,0,51.15,20.71t18.63,55.18c0,3.33-.1,5.84-.28,7.5H688.52q.29,19.19,12.93,30.86t32.11,11.67q26.12,0,40-20.29l20,15q-7,12-22.24,21.82T733,191.08Q699.36,191.08,678.52,170Zm11.11-68.67h77.56q-.83-17.51-11.67-27.38t-27-9.87q-15.84,0-26.68,10.15T689.63,101.29Z"/><path class="cls-2" d="M423.19,221c2.81.41,5.4,1.72,5.69,4.77.64,4.07.1,9.44-5.05,9.74-6.81.38-13.66.08-20.48.15-2.9.13-2.89-4.67.13-4.37H420c3.14.41,6.23-1.14,4.46-4.67a2.92,2.92,0,0,0-2.83-1.19q-11,0-22,0c-2.09.05-2.81.66-2.85,2.75-.06,3.51-.06,7,0,10.54,0,2.18.82,2.84,3.16,2.84H426.7c1.45,0,2.19.51,2.46,1.67.43,1.76-1.05,2.94-2.73,2.74-9.8-.21-19.69.47-29.46-.31-4.11-.62-4.75-4.7-4.64-8.2,0-2.95,0-5.9,0-8.85-.21-4.13,1.52-7.21,5.91-7.6Z"/><path class="cls-2" d="M312.15,221c3.59.55,6.42,3.06,6.38,7.07,0,5.14,0,10.27,0,15.41,0,1.55-.76,2.35-2.15,2.36a2.16,2.16,0,0,1-2.26-2.4c0-4.87,0-9.74,0-14.61a3.14,3.14,0,0,0-3.45-3.47H289.56a3.14,3.14,0,0,0-3.47,3.45c0,3.19,0,6.37,0,9.56a3.07,3.07,0,0,0,3.09,3.12c5.37,0,10.74.13,16.11-.06.18-2-.88-5.79,2.24-5.75a2,2,0,0,1,2.12,2c-.14,3,1.26,8.07-3.31,8.21-6.08,0-12.18.13-18.26-.1-9-.88-6-11.72-6.38-18,0-3.79,2.61-6.1,6.21-6.86Z"/><path class="cls-2" d="M509.81,240.34c-.52,4.09-3.62,5.85-7.54,5.65-8.18-.18-16.43.41-24.57-.27-7.25-1.42-4.12-11.71-4.75-17.07-.18-4.14,1.62-7.28,6-7.62h24.77a6.16,6.16,0,0,1,6.06,5.67Zm-18.35,1.23v0c16.27-.37,13.87,3.23,13.91-13.53.12-2.13-1.49-2.68-3.38-2.59H480.71c-1.62-.05-3.45.37-3.32,2.35C477.45,244.74,474.92,241.2,491.46,241.57Z"/><path class="cls-2" d="M466.32,221a2.25,2.25,0,0,1-.84,4.41c-8.6.15-17.24-.29-25.82.17-1.44.21-1.64,1.75-1.65,2.95,0,3.3,0,6.61,0,9.91-.1,2.53,1.22,3.17,3.54,3.1H465.6c1.69,0,2.51.88,2.37,2.47a1.92,1.92,0,0,1-2,1.92q-13,0-25.92,0c-3.5-.11-6.28-2.07-6.28-5.92-.12-4.22-.16-8.44-.05-12.66s2-5.58,5.9-6.34Z"/><path class="cls-2" d="M386.3,221c2.37.67,2.06,4.66-.64,4.43-3.41.06-6.83-.07-10.24,0a2.11,2.11,0,0,0-2.14,2.34c-.79,5.71,2.72,16.94-5.44,18-4.78.37-9.62.08-14.42.16a2.18,2.18,0,0,1-2.26-3,2,2,0,0,1,2.26-1.45H365c3.07,0,3.72-.64,3.73-3.67,0-3.53-.06-7.08.08-10.61.09-4,2.08-5.5,5.9-6.26Z"/><path class="cls-2" d="M358.31,221a2.29,2.29,0,0,1,1.56,1.85,2.08,2.08,0,0,1-2.18,2.58c-3.32,0-6.65,0-10,0-1.71.1-2.4.76-2.53,2.46-.19,4.29.22,8.63-.22,12.91-.43,3.49-3.3,5.11-6.61,5.12q-6.54,0-13.1,0c-2.94.2-3-4.6,0-4.4h11.94c1.76.14,3.57-.49,3.49-2.54.16-4.38-.27-8.82.29-13.17.54-3.14,2.77-4.42,5.77-4.83Z"/><path class="cls-1" d="M239,246.76V225h3.27v8.14a6.08,6.08,0,0,1,5.08-2.49,6.9,6.9,0,0,1,5.39,2.3,8.61,8.61,0,0,1,2.06,6,8.33,8.33,0,0,1-2.15,5.91,7.21,7.21,0,0,1-5.51,2.29,6.08,6.08,0,0,1-5-2.43v2Zm3.15-7.78a5.67,5.67,0,0,0,1.28,3.76,4.18,4.18,0,0,0,3.38,1.53,4.34,4.34,0,0,0,3.36-1.46,5.45,5.45,0,0,0,1.33-3.83,5.69,5.69,0,0,0-1.31-3.87,4.24,4.24,0,0,0-3.35-1.5,4.39,4.39,0,0,0-3.37,1.44A5.59,5.59,0,0,0,242.17,239Z"/><path class="cls-1" d="M263,252.14h-3.15l2.22-5.65-6.22-15.41h3.52l4.23,11.42,4.18-11.42h3.42Z"/></g></svg>